# xmcd
#
# Track frame offsets:
#	150
#	16966
#	36258
#	52949
#	69063
#	82095
#	95171
#	108247
#	125346
#	141726
#
# Disc length: 2105 seconds
#
# Revision: 1
# Processed by: cddbd v1.5.2PL0 Copyright (c) Steve Scherf et al.
# Submitted via: audiograbber 1.83.01
#
DISCID=8608370a
DTITLE=Les Williams - Classic Country Music Les Williams
DYEAR=1900
DGENRE=
TTITLE0=Folsom Prison
TTITLE1=A Good Hearted Woman
TTITLE2=Beer and Bones
TTITLE3=Five Minutes
TTITLE4=Blue
TTITLE5=Blue Eyes And Jeans
TTITLE6=What Part Of No
TTITLE7=Loving Arms
TTITLE8=Tonight The Heartache´s On Me
TTITLE9=Once You´ve Loved Somebody
EXTD=
EXTT0=
EXTT1=
EXTT2=
EXTT3=
EXTT4=
EXTT5=
EXTT6=
EXTT7=
EXTT8=
EXTT9=
PLAYORDER=
